<svg xmlns="http://www.w3.org/2000/svg" viewBox="0 0 64 64" fill="none">
  <defs>
    <linearGradient id="bg" x1="10" y1="8" x2="54" y2="56" gradientUnits="userSpaceOnUse">
      <stop stop-color="#102A5E" />
      <stop offset="1" stop-color="#0B1F47" />
    </linearGradient>
  </defs>
  <rect x="3" y="3" width="58" height="58" rx="16" fill="url(#bg)" />
  <path
    d="M15 19.5C15 16.4624 17.4624 14 20.5 14H43.5C46.5376 14 49 16.4624 49 19.5V31.5C49 34.5376 46.5376 37 43.5 37H30.8L21 44.5V37H20.5C17.4624 37 15 34.5376 15 31.5V19.5Z"
    fill="#F8FBFF"
  />
  <circle cx="24" cy="27" r="2.4" fill="#102A5E" />
  <circle cx="32" cy="27" r="2.4" fill="#102A5E" />
  <circle cx="40" cy="27" r="2.4" fill="#102A5E" />
  <path
    d="M21 13.5C21 11.567 22.567 10 24.5 10H39.5C41.433 10 43 11.567 43 13.5V15H21V13.5Z"
    fill="#2A4E93"
    opacity="0.95"
  />
</svg>
